HIERARCHY
ROOT Hips
{
 OFFSET 0.000000 0.000000 0.000000
 CHANNELS 6 Xposition Yposition Zposition Yrotation Xrotation Zrotation
 JOINT Chest
 {
  OFFSET 0.000000 9.585900 0.002600
  CHANNELS 3 Yrotation Xrotation Zrotation
  JOINT Chest2
  {
   OFFSET 0.000000 9.601200 -0.005300
   CHANNELS 3 Yrotation Xrotation Zrotation
   JOINT Chest3
   {
    OFFSET 0.000000 9.561800 0.000000
    CHANNELS 3 Yrotation Xrotation Zrotation
    JOINT Chest4
    {
     OFFSET 0.000000 9.552100 0.000000
     CHANNELS 3 Yrotation Xrotation Zrotation
     JOINT Neck
     {
      OFFSET 0.000000 14.453000 0.000000
      CHANNELS 3 Yrotation Xrotation Zrotation
      JOINT Head
      {
       OFFSET 0.000000 8.936500 -0.011300
       CHANNELS 3 Yrotation Xrotation Zrotation
       End Site
       {
        OFFSET 0.000000 17.073600 -0.006000
       }
      }
     }
     JOINT RightCollar
     {
      OFFSET -2.921100 9.558500 0.000000
      CHANNELS 3 Yrotation Xrotation Zrotation
      JOINT RightShoulder
      {
       OFFSET -13.519700 0.000000 0.000000
       CHANNELS 3 Yrotation Xrotation Zrotation
       JOINT RightElbow
       {
        OFFSET 0.000000 -29.696600 0.000000
        CHANNELS 3 Yrotation Xrotation Zrotation
        JOINT RightWrist
        {
         OFFSET 0.000000 -24.004700 0.000000
         CHANNELS 3 Yrotation Xrotation Zrotation
         End Site
         {
          OFFSET 0.000000 -17.728500 0.000000
         }
        }
       }
      }
     }
     JOINT LeftCollar
     {
      OFFSET 2.921100 9.558500 0.000000
      CHANNELS 3 Yrotation Xrotation Zrotation
      JOINT LeftShoulder
      {
       OFFSET 13.519700 0.000000 0.000000
       CHANNELS 3 Yrotation Xrotation Zrotation
       JOINT LeftElbow
       {
        OFFSET 0.000000 -29.696600 0.000000
        CHANNELS 3 Yrotation Xrotation Zrotation
        JOINT LeftWrist
        {
         OFFSET 0.000000 -24.004700 0.000000
         CHANNELS 3 Yrotation Xrotation Zrotation
         End Site
         {
          OFFSET 0.000000 -17.728500 0.000000
         }
        }
       }
      }
     }
    }
   }
  }
 }
 JOINT RightHip
 {
  OFFSET -7.771700 -0.012900 -0.001300
  CHANNELS 3 Yrotation Xrotation Zrotation
  JOINT RightKnee
  {
   OFFSET 0.000000 -40.869800 0.001200
   CHANNELS 3 Yrotation Xrotation Zrotation
   JOINT RightAnkle
   {
    OFFSET 0.000000 -39.717900 0.002100
    CHANNELS 3 Yrotation Xrotation Zrotation
    JOINT RightToe
    {
     OFFSET 0.000000 -4.965400 11.033500
     CHANNELS 3 Yrotation Xrotation Zrotation
     End Site
     {
      OFFSET 0.000000 -1.423100 5.872300
     }
    }
   }
  }
 }
 JOINT LeftHip
 {
  OFFSET 7.771700 -0.012900 -0.001300
  CHANNELS 3 Yrotation Xrotation Zrotation
  JOINT LeftKnee
  {
   OFFSET 0.000000 -40.869800 0.001200
   CHANNELS 3 Yrotation Xrotation Zrotation
   JOINT LeftAnkle
   {
    OFFSET 0.000000 -39.717900 0.002100
    CHANNELS 3 Yrotation Xrotation Zrotation
    JOINT LeftToe
    {
     OFFSET 0.000000 -4.965400 11.033500
     CHANNELS 3 Yrotation Xrotation Zrotation
     End Site
     {
      OFFSET 0.000000 -1.423100 5.872300
     }
    }
   }
  }
 }
}
MOTION
Frames: 12
Frame Time: 0.008333
0.000000 85.388000 0.000000 0.000000 -5.767877 0.000000 0.000000 11.653817 0.000000 0.000000 -5.885947 0.000000 0.000000 -0.000000 0.000000 0.000000 -0.000000 0.000000 0.000000 12.528835 0.000000 0.000000 0.711642 0.000000 0.000000 -0.000000 0.000000 0.000000 0.000000 -90.000000 0.000000 -2.309062 0.000000 0.000000 2.309062 0.000000 0.000000 -0.000000 0.000000 0.000000 -0.000000 90.000000 0.000000 -2.309062 0.000000 0.000000 2.309062 0.000000 0.000000 8.520406 0.000000 0.000000 1.905762 0.000000 -0.000000 -4.658285 0.000000 0.000000 -0.000000 0.000000 0.000000 8.520406 0.000000 0.000000 1.905762 0.000000 -0.000000 -4.658285 0.000000 0.000000 -0.000000 0.000000
-15.804709 57.190854 76.808848 -178.879910 -32.462368 0.253702 4.475748 16.645264 4.098343 0.429019 1.824216 0.218116 0.717257 3.032176 0.370513 3.767307 14.806546 2.228658 -0.239064 20.376319 -1.910674 0.047977 2.055538 -3.469857 2.401305 5.208962 2.667495 29.959384 -42.219104 -24.231901 -163.907508 -57.338946 -166.696049 4.147233 -4.461788 -34.530416 -14.710404 2.693702 -1.382126 -9.218075 -36.047095 2.792355 164.438960 -58.663901 172.697046 -16.646205 -4.070109 4.989731 11.007502 -39.154402 -7.091868 -4.556344 68.238005 -5.929981 5.844584 5.107491 8.494129 -0.397169 0.147145 -0.058330 -10.965503 -46.436419 -0.312024 26.597078 63.899347 29.865621 -17.461874 33.813629 -6.216008 0.854189 -17.365923 -7.235528
-15.816109 57.195732 76.809289 -178.752144 -32.695097 0.216637 4.859707 17.330818 4.174351 0.489551 1.974081 0.219766 0.815520 3.269519 0.373518 4.095771 15.289715 2.206446 -0.457081 19.897614 -1.743268 -0.345012 1.153997 -3.080415 1.538295 3.772867 3.008639 30.086462 -41.938257 -24.079229 -160.458639 -57.698988 -169.641067 5.395922 -3.474679 -35.680932 -15.510134 1.372391 -0.575880 -9.847319 -36.127194 2.950932 160.131199 -59.867477 176.070081 -16.847820 -3.804125 6.173124 10.877909 -38.768766 -7.085851 -4.446835 68.073584 -5.911142 6.063843 4.752174 8.718537 -0.683464 0.489485 -0.190819 -10.926588 -46.209323 -0.392203 26.630725 63.855970 29.834318 -17.552337 33.860507 -6.193722 0.858364 -17.388700 -7.188267
-15.834340 57.192820 76.823409 -178.703935 -32.873546 0.249505 4.897548 17.888692 4.225695 0.503809 2.099127 0.227193 0.837443 3.467346 0.385530 4.086630 15.711266 2.212227 -0.508622 19.509540 -1.768415 -0.385962 0.440938 -3.073351 1.397748 2.661188 2.938229 30.035324 -41.828893 -23.869766 -158.128176 -57.826378 -171.634034 6.244116 -2.478093 -36.613207 -15.596000 0.222338 -0.250352 -10.248469 -36.143578 3.014545 157.194940 -60.678621 178.739394 -17.258291 -3.633576 6.731617 10.906614 -38.572858 -7.127359 -4.532808 68.059240 -6.032827 6.082907 4.736605 8.789869 -0.710959 0.522249 -0.217478 -10.778748 -46.043007 -0.514022 26.648572 63.810582 29.800553 -17.621908 33.905537 -6.174763 0.835190 -17.412555 -7.119869
-15.853666 57.186931 76.843648 -178.663728 -33.044111 0.279279 4.660575 18.295355 4.278951 0.481484 2.185143 0.237629 0.799717 3.603576 0.402044 3.849814 16.020796 2.233656 -0.444092 19.260498 -1.919541 -0.192216 -0.028240 -3.382763 1.742824 1.967837 2.631856 29.835036 -41.837727 -23.660369 -157.116828 -57.915899 -172.391577 6.474084 -1.998874 -37.132497 -15.169559 -0.594849 -0.316200 -10.397170 -36.095790 2.961919 156.002317 -61.134149 -179.939745 -17.576187 -3.439949 6.434298 10.933332 -38.390880 -7.170215 -4.615475 68.039488 -6.143444 6.114935 4.736120 8.856273 -0.735049 0.548544 -0.244289 -10.618399 -45.885042 -0.634878 26.664928 63.764565 29.771499 -17.670721 33.940930 -6.110162 0.867321 -17.430124 -7.104385
-15.873556 57.179190 76.868953 -178.632514 -33.209730 0.305827 4.297370 18.532613 4.324532 0.439847 2.230055 0.247776 0.730756 3.674976 0.417835 3.514764 16.203337 2.256287 -0.326877 19.158605 -2.117666 0.078495 -0.206732 -3.778041 2.305128 1.694037 2.252438 29.491051 -41.926594 -23.467735 -157.106529 -57.953329 -172.105873 6.361317 -1.798409 -37.468578 -14.509417 -1.011283 -0.648732 -10.339661 -35.985207 2.853002 155.906845 -61.302899 -179.741573 -17.691439 -3.286130 5.956191 10.981053 -38.216555 -7.220622 -4.741436 68.011965 -6.274238 6.167800 4.752151 8.893008 -0.762948 0.566238 -0.243032 -10.457199 -45.731243 -0.743241 26.690626 63.714849 29.750935 -17.716456 33.970550 -6.037886 0.864341 -17.422140 -7.078869
-15.893275 57.170263 76.899563 -178.611377 -33.367692 0.329260 3.865276 18.592072 4.361121 0.386669 2.233241 0.256451 0.643196 3.680678 0.431068 3.129227 16.254801 2.277178 -0.181448 19.204627 -2.333811 0.394370 -0.106001 -4.211672 2.979811 1.837906 1.858287 29.058020 -42.040604 -23.321769 -157.475283 -57.844846 -171.353757 6.097002 -1.679178 -37.799217 -13.696646 -0.983799 -1.044540 -10.096497 -35.884450 2.584662 156.127424 -61.256841 179.934172 -17.728144 -3.243600 5.639836 11.044615 -38.049463 -7.279764 -4.878753 67.974362 -6.395400 6.227282 4.773055 8.956236 -0.788523 0.587548 -0.272970 -10.305620 -45.582047 -0.827364 26.730662 63.658326 29.735686 -17.772377 33.992401 -5.968018 0.865841 -17.401185 -7.051757
-15.912511 57.161834 76.934588 -178.607062 -33.526864 0.355339 3.405977 18.520095 4.389770 0.328026 2.204266 0.263560 0.546936 3.635810 0.441797 2.721084 16.202708 2.296999 -0.024241 19.363417 -2.553301 0.744395 0.200285 -4.658752 3.701443 2.307087 1.472303 28.667684 -42.123200 -23.263865 -157.735888 -57.617238 -170.696085 5.821042 -1.656637 -38.160190 -12.814037 -0.594563 -1.507325 -9.769486 -35.835690 2.301716 156.251026 -61.116021 179.529046 -17.741507 -3.296359 5.453450 11.122274 -37.887041 -7.341936 -4.997357 67.933857 -6.479604 6.281623 4.820761 8.991857 -0.809544 0.592624 -0.286928 -10.160440 -45.428105 -0.886954 26.779698 63.595339 29.715507 -17.855000 34.017243 -5.888347 0.896992 -17.377810 -7.047847
-15.929784 57.154535 76.974759 -178.608868 -33.686265 0.372711 2.982049 18.391184 4.422650 0.273912 2.163344 0.269524 0.458058 3.572002 0.450875 2.345235 16.104451 2.317984 0.111209 19.565354 -2.751912 1.045153 0.586772 -5.058579 4.348834 2.903534 1.133508 28.485504 -42.138543 -23.332198 -157.832064 -57.356808 -170.313436 5.642961 -1.683922 -38.575673 -12.009051 -0.053834 -1.954719 -9.345035 -35.846090 2.040605 156.036330 -60.976055 179.292113 -17.675818 -3.363569 5.376621 11.153555 -37.727795 -7.364387 -5.057218 67.880650 -6.528156 6.311210 4.881263 9.003823 -0.810438 0.592442 -0.276135 -10.037348 -45.268434 -0.916586 26.832454 63.524149 29.688055 -17.938321 34.043507 -5.807963 0.901026 -17.346522 -7.035042
-15.945922 57.146826 77.023782 -178.602559 -33.823912 0.381112 2.637838 18.256811 4.457961 0.231844 2.130110 0.275072 0.388779 3.520071 0.459486 2.048152 16.019209 2.342235 0.196537 19.744816 -2.911704 1.241990 0.929145 -5.371566 4.872758 3.434355 0.830194 28.503560 -42.110559 -23.484870 -157.954232 -57.123238 -170.077647 5.550470 -1.752412 -39.074437 -11.388029 0.453944 -2.284154 -8.815084 -35.917726 1.760160 155.400425 -60.887534 179.310404 -17.533947 -3.413384 5.431072 11.221006 -37.597692 -7.428911 -5.086229 67.832372 -6.491517 6.324289 4.983641 8.994825 -0.801353 0.562586 -0.263772 -9.939832 -45.124107 -0.930697 26.886781 63.441326 29.658294 -17.961051 34.046227 -5.758662 0.883982 -17.282793 -6.975351
-15.963108 57.142551 77.076680 -178.605399 -33.978609 0.403765 2.390362 18.199238 4.490111 0.202069 2.116379 0.281210 0.339727 3.498649 0.469188 1.832101 15.987154 2.370936 0.228473 19.864602 -3.035604 1.332359 1.157540 -5.603977 5.163701 3.779908 0.640833 28.821573 -42.017821 -23.788786 -158.185539 -56.927516 -169.851950 5.476238 -1.921930 -39.657527 -10.958426 0.798123 -2.494256 -8.288176 -36.011077 1.474743 154.502831 -60.864426 179.541635 -17.390236 -3.460247 5.577214 11.272190 -37.448223 -7.487359 -5.076097 67.772909 -6.433577 6.339530 5.096096 8.966314 -0.784615 0.537428 -0.245399 -9.858938 -44.967462 -0.974979 27.013112 63.335257 29.697404 -17.932580 34.100985 -5.640174 0.838099 -17.254815 -6.975841
-15.974840 57.141162 77.133961 -178.594222 -34.145848 0.389981 2.198560 18.220484 4.562957 0.179772 2.124251 0.289019 0.303060 3.511125 0.481608 1.664886 16.019100 2.406139 0.222485 19.921095 -3.141918 1.350853 1.266158 -5.794408 5.358865 3.929718 0.460914 29.174649 -41.932030 -24.100926 -158.452262 -56.763740 -169.621728 5.392751 -2.194611 -40.282662 -10.644584 0.910521 -2.716399 -7.974456 -36.056223 1.316617 153.595935 -60.905002 179.907867 -17.251246 -3.482945 5.733375 11.242162 -37.277783 -7.465338 -5.083641 67.680659 -6.435355 6.358961 5.192902 8.966302 -0.780588 0.538941 -0.247390 -9.781071 -44.782728 -0.964130 26.995547 63.235871 29.610074 -18.017356 34.144100 -5.619483 0.843187 -17.214248 -6.931829
